<?xml version="1.0" encoding="utf-8"?>
<!-- Generator: Adobe Illustrator 26.3.1, SVG Export Plug-In . SVG Version: 6.00 Build 0)  -->
<svg version="1.1" id="Layer_1" xmlns="http://www.w3.org/2000/svg" xmlns:xlink="http://www.w3.org/1999/xlink" x="0px" y="0px"
	 viewBox="0 0 1024 1024" style="enable-background:new 0 0 1024 1024;" xml:space="preserve">
<style type="text/css">
	.st0{fill:#FFFFFF;}
</style>
<path class="st0" d="M978.6,206.6c-41.7-60.8-112.3-98.5-185.2-104.5h-36.1c-54,6.1-107.3,26.6-147.5,63.9
	C488.8,283.9,370.4,404.5,249.4,522.4c-28.1-27.6-56-55.4-83.8-83.2c-29.6-29.4-45.3-73.1-36.6-114.5
	c11.8-61.5,75.2-107.7,137.6-97.4c60.1,6.4,92.4,64.1,135.8,98.8l87-82.8c-54.2-69.2-127.3-135.9-219.8-141.1h-22.7
	c-59.2,2.5-119.4,21.2-163.8,61.7C31.7,208.7,7.5,276.7,0,342.9v21C3.1,421,27,475,67,515.8C186.9,637.4,308,757.8,429,878.1
	c22.8,22.4,43.8,47.2,71.6,63.7h20.7c30.6-10.6,49.4-38.5,72.4-59.4c89.1-90.9,182-177.9,268.9-270.8L601.7,349.9
	c29.4-29.5,58.6-59.4,88.5-88.2c24.3-24.1,58.2-38,92.7-35.3c70,0.9,127.9,72.5,115.1,141.3c-7.5,59.7-63.7,92.1-98.8,135.1l88.2,84
	c29.2-24.2,56.8-53.7,81.7-82.4C1038.8,422.3,1042.3,293.2,978.6,206.6z M636,596.1c11.7,74.5-59.4,147.8-134.4,137.6
	C428.5,731.1,375,651,393.3,581.8c10.6-45.6,49.8-82.5,95.9-90.4c8.3-1.9,16.8-2.7,25.2-2.6C573.4,489.5,629.9,536.1,636,596.1
	L636,596.1z M584.6,576.7c18.8,39.4,2.1,86.6-37.3,105.4c-39.4,18.8-86.6,2.1-105.4-37.3c-18.8-39.4-2.1-86.6,37.3-105.4
	c17.4-8.3,37.1-10,55.6-4.7c-2.2,4.5-3.4,9.5-3.4,14.5c-0.1,18.6,15,33.7,33.5,33.8C572,582.9,578.8,580.8,584.6,576.7z"/>
</svg>
