<svg viewBox="0 0 903 318" fill="none" xmlns="http://www.w3.org/2000/svg">
<g clip-path="url(#clip0_430_38721)">
<path d="M3.56988 80.3383H60.8735C60.8735 80.3383 64.9788 210.849 50.7266 240.469C41.956 258.617 32.0665 276.202 21.1152 293.123L0 232.785L3.56988 80.3383ZM269.518 80.3383H212.223C212.223 80.3383 208.109 210.849 222.37 240.469C231.14 258.617 241.03 276.202 251.981 293.123L273.088 232.785L269.518 80.3383ZM106.656 3.56104H164.79V278.853C164.79 278.853 164.79 310.66 135.723 315.042C117.721 317.657 99.4367 317.657 81.4354 315.042L61.4179 267.912H105.567L106.656 3.56104ZM414.852 3.56104H353.407L306.269 103.372C306.269 103.372 291.99 135.179 320.548 135.179H353.407L321.601 207.565C321.601 207.565 311.757 234.981 343.591 234.981H414.879L429.158 186.726H386.33L434.62 86.9154L376.486 84.7292L414.852 3.56104ZM307.366 256.917H406.079L381.948 316.996H286.528L307.366 256.917ZM456.529 21.1157H593.626V80.338H456.529L456.529 21.1157ZM494.913 80.338H555.234V265.69H494.913L494.913 80.338ZM438.975 265.69H614.456V316.996H410.462L438.975 265.69ZM900.716 173.018C895.228 136.277 830.534 135.179 830.534 135.179C830.534 135.179 829.428 157.115 830.534 93.5018C831.641 29.8886 774.596 21.1157 774.596 21.1157H632.01V80.338H674.785V134.045H610.074V194.365H671.492V317.103L734.008 316.996V197.695L839.316 198.792L841.511 271.178H783.36L803.1 316.996C803.1 316.996 826.134 317.237 860.137 316.996C894.139 316.755 900.716 278.853 900.716 278.853C900.716 278.853 906.195 209.76 900.716 173.018ZM775.685 134.045H734.008V80.338H775.685V134.045Z" fill="#FFFFFF"></path>
<path d="M673.411 0H732.223V23.0339H673.411V0ZM845.742 76.9284C845.742 76.9284 837.754 7.80897 883.992 23.0519C921.421 35.3675 901.261 96.241 845.742 76.9284Z" fill="#FFFFFF"></path>
</g>
<defs>
<clipPath id="clip0_430_38721">
<rect width="903" height="317.103" fill="white"></rect>
</clipPath>
</defs>
</svg>
